<?xml version="1.0" ?>
<!-- Uploaded to: SVG Repo, www.svgrepo.com, Generator: SVG Repo Mixer Tools -->
<svg width="800px" height="800px" viewBox="0 0 512 512" id="Layer_1" version="1.1" xml:space="preserve" xmlns="http://www.w3.org/2000/svg" xmlns:xlink="http://www.w3.org/1999/xlink">
<style type="text/css">
	.st0{fill:#2B79C2;}
	.st1{fill:#3B4652;}
</style>
<g>
<path class="st1" d="M487.8,467.3h-38.3V208.3H71v258.9H32.7c-3.9,0-7,3.1-7,7s3.1,7,7,7h455.1c3.9,0,7-3.1,7-7   S491.6,467.3,487.8,467.3z M169.2,327.1c0-50.3,40.8-91,91-91s91,40.8,91,91c0,34.8-19.5,64.9-48.1,80.3   c13.2,20.7,30.1,47.4,37.9,59.9H179.4c7.8-12.5,24.7-39.2,37.9-59.9C188.7,392.1,169.2,361.9,169.2,327.1z"/>
<path class="st0" d="M449.4,124.2c0-15.6-12.7-28.3-28.3-28.3H99.4c-15.6,0-28.3,12.7-28.3,28.3v70.2h378.4V124.2z M152.7,172.4   c-12.3,0-22.3-10-22.3-22.3c0-12.3,10-22.3,22.3-22.3c12.3,0,22.3,10,22.3,22.3C175,162.4,165,172.4,152.7,172.4z"/>
<path class="st1" d="M152.7,74.3c3.9,0,7-3.1,7-7V37.8c0-3.9-3.1-7-7-7s-7,3.1-7,7v29.5C145.7,71.1,148.9,74.3,152.7,74.3z"/>
<path class="st1" d="M50.5,88c1.4,1.4,3.2,2,5,2s3.6-0.7,5-2c2.7-2.7,2.7-7.2,0-9.9l-18-18c-2.7-2.7-7.2-2.7-9.9,0   c-2.7,2.7-2.7,7.2,0,9.9L50.5,88z"/>
<path class="st1" d="M52.2,150.1c0-3.9-3.1-7-7-7h-21c-3.9,0-7,3.1-7,7s3.1,7,7,7h21C49.1,157.1,52.2,154,52.2,150.1z"/>
</g>
</svg>